<svg xmlns="http://www.w3.org/2000/svg" viewBox="0 0 320 300"><defs><marker id="c79aA" viewBox="0 0 10 10" refX="7" refY="5" markerWidth="5" markerHeight="5" orient="auto-start-reverse"><path d="M0 0L10 5L0 10z" fill="#6A5B50"/></marker></defs><path data-hl="law" d="M160.0 150.0L160.0 38.0" stroke="#6A5B50" stroke-width="3" stroke-dasharray="2 6" stroke-linecap="round"/><path data-hl="care" d="M160.0 150.0L254.4 94.0" stroke="#6A5B50" stroke-width="3" stroke-dasharray="2 6" stroke-linecap="round"/><path data-hl="par" d="M160.0 150.0L254.4 206.0" stroke="#6A5B50" stroke-width="3" stroke-dasharray="2 6" stroke-linecap="round"/><path data-hl="tea" d="M160.0 150.0L160.0 262.0" stroke="#6A5B50" stroke-width="3" stroke-dasharray="2 6" stroke-linecap="round"/><path data-hl="resp" d="M160.0 150.0L65.6 206.0" stroke="#6A5B50" stroke-width="3" stroke-dasharray="2 6" stroke-linecap="round"/><path data-hl="hon" d="M160.0 150.0L65.6 94.0" stroke="#6A5B50" stroke-width="3" stroke-dasharray="2 6" stroke-linecap="round"/><g data-hl="law"><rect x="115.0" y="6.0" width="90" height="64" rx="16" fill="#D6E0F5" stroke="#3E4F8F" stroke-width="2.5"/><g transform="translate(140.0 18.0) scale(1.000)"><path d="M6 34h16" fill="none" stroke="#3E3129" stroke-width="3.4" stroke-linecap="round" stroke-linejoin="round"/><path d="M12 26l12-12" fill="none" stroke="#9A6B45" stroke-width="4" stroke-linecap="round" stroke-linejoin="round"/><path d="M17 7l9-3 6 12-9 3z" fill="#9A6B45" stroke="#3E3129" stroke-width="2.2" stroke-linecap="round" stroke-linejoin="round"/></g></g><g data-hl="care"><rect x="209.4" y="62.0" width="90" height="64" rx="16" fill="#FBD3C4" stroke="#D9765A" stroke-width="2.5"/><g transform="translate(234.4 74.0) scale(1.000)"><path d="M20 34C6 25 4 16 9 10c4-4 9-3 11 2 2-5 7-6 11-2 5 6 3 15-11 24z" fill="#EE6A58" stroke="#3E3129" stroke-width="2.2" stroke-linecap="round" stroke-linejoin="round"/></g></g><g data-hl="par"><rect x="209.4" y="174.0" width="90" height="64" rx="16" fill="#D5EDD2" stroke="#5CA75C" stroke-width="2.5"/><g transform="translate(234.4 186.0) scale(1.000)"><circle cx="13" cy="13" r="5.5" fill="#E0A27A" stroke="#3E3129" stroke-width="2.2"/><path d="M3 34c0-7 4-12 10-12s10 5 10 12z" fill="#5CA75C" stroke="#3E3129" stroke-width="2.2" stroke-linecap="round" stroke-linejoin="round"/><circle cx="27" cy="11" r="6" fill="#E0A27A" stroke="#3E3129" stroke-width="2.2"/><path d="M16 36c0-8 5-13 11-13s11 5 11 13z" fill="#6F8FD6" stroke="#3E3129" stroke-width="2.2" stroke-linecap="round" stroke-linejoin="round"/></g></g><g data-hl="tea"><rect x="115.0" y="230.0" width="90" height="64" rx="16" fill="#FBEBB5" stroke="#C9A227" stroke-width="2.5"/><g transform="translate(140.0 242.0) scale(1.000)"><path d="M5 36V18l15-10 15 10v18z" fill="#F7A58C" stroke="#3E3129" stroke-width="2.2" stroke-linecap="round" stroke-linejoin="round"/><rect x="16" y="26" width="8" height="10" rx="1" fill="#9A6B45" stroke="#3E3129" stroke-width="2.2"/><path d="M20 8V2h7v4h-7" fill="#EE6A58" stroke="#3E3129" stroke-width="1.6" stroke-linecap="round" stroke-linejoin="round"/><rect x="8" y="21" width="6" height="5" rx="1" fill="#FFFFFF" stroke="#3E3129" stroke-width="1.5"/><rect x="26" y="21" width="6" height="5" rx="1" fill="#FFFFFF" stroke="#3E3129" stroke-width="1.5"/></g></g><g data-hl="resp"><rect x="20.6" y="174.0" width="90" height="64" rx="16" fill="#E3DAF4" stroke="#7D66B3" stroke-width="2.5"/><g transform="translate(45.6 186.0) scale(1.000)"><path d="M13 36V17a2.5 2.5 0 0 1 5 0V8a2.5 2.5 0 0 1 5 0v9-11a2.5 2.5 0 0 1 5 0v14-9a2.5 2.5 0 0 1 5 0v14c0 8-4 12-11 12h-2c-4 0-7-2-9-6l-5-8a2.5 2.5 0 0 1 4-3l3 4" fill="#E0A27A" stroke="#3E3129" stroke-width="2.2" stroke-linecap="round" stroke-linejoin="round"/></g></g><g data-hl="hon"><rect x="20.6" y="62.0" width="90" height="64" rx="16" fill="#CDEEE4" stroke="#3F9C84" stroke-width="2.5"/><g transform="translate(45.6 74.0) scale(1.000)"><circle cx="20" cy="20" r="15" fill="#9ED39A" stroke="#5CA75C" stroke-width="2.2"/><path d="M12 20l6 6 11-12" fill="none" stroke="#fff" stroke-width="4" stroke-linecap="round" stroke-linejoin="round"/></g></g><g data-hl="center"><rect x="112.0" y="111.0" width="96" height="78" rx="37" fill="#FBEBB5" stroke="#C9A227" stroke-width="2.5"/><g transform="translate(139.0 129.0) scale(1.050)"><path d="M20 4l4.8 10 11 1.4-8 7.6 2 11L20 28.6 10.2 34l2-11-8-7.6 11-1.4z" fill="#F7D46E" stroke="#3E3129" stroke-width="2.2" stroke-linecap="round" stroke-linejoin="round"/></g></g></svg>