<svg xmlns="http://www.w3.org/2000/svg" viewBox="0 0 320 200" font-family="Nunito,sans-serif" font-weight="900">
<rect width="320" height="200" fill="#FFFBF2"/><g><rect x="14" y="30" width="116" height="30" rx="4" fill="#FBE7A1" stroke="#8A6410" stroke-width="2"/><path d="M20 30L20 42" stroke="#3E3129" stroke-width="2"/><text x="20" y="55" text-anchor="middle" font-size="10" fill="#3E3129">0</text><path d="M33.0 30L33.0 37" stroke="#3E3129" stroke-width="1.2"/><path d="M46 30L46 42" stroke="#3E3129" stroke-width="2"/><text x="46" y="55" text-anchor="middle" font-size="10" fill="#3E3129">1</text><path d="M59.0 30L59.0 37" stroke="#3E3129" stroke-width="1.2"/><path d="M72 30L72 42" stroke="#3E3129" stroke-width="2"/><text x="72" y="55" text-anchor="middle" font-size="10" fill="#3E3129">2</text><path d="M85.0 30L85.0 37" stroke="#3E3129" stroke-width="1.2"/><path d="M98 30L98 42" stroke="#3E3129" stroke-width="2"/><text x="98" y="55" text-anchor="middle" font-size="10" fill="#3E3129">3</text><path d="M111.0 30L111.0 37" stroke="#3E3129" stroke-width="1.2"/><path d="M124 30L124 42" stroke="#3E3129" stroke-width="2"/><text x="124" y="55" text-anchor="middle" font-size="10" fill="#3E3129">4</text></g><g stroke="#1F6FB2" stroke-width="4" fill="none" stroke-linecap="round"><path d="M200 150L235 40L270 150"/></g><circle cx="235" cy="40" r="7" fill="#1F6FB2"/><path d="M30 140Q60 100 90 140T150 140T200 170" stroke="#DDA42A" stroke-width="4" fill="none"/><circle cx="30" cy="140" r="7" fill="#DDA42A" stroke="#8A6410" stroke-width="2"/>
</svg>
