<svg xmlns="http://www.w3.org/2000/svg" viewBox="0 0 320 150" font-family="Nunito, sans-serif"><g data-hl="r0"><rect x="20" y="14" width="10" height="10" fill="#D3F1EA" stroke="#3E3129" stroke-width="1"/><rect x="20" y="24" width="10" height="10" fill="#D3F1EA" stroke="#3E3129" stroke-width="1"/><rect x="30" y="14" width="10" height="10" fill="#D3F1EA" stroke="#3E3129" stroke-width="1"/><rect x="30" y="24" width="10" height="10" fill="#D3F1EA" stroke="#3E3129" stroke-width="1"/><rect x="40" y="14" width="10" height="10" fill="#D3F1EA" stroke="#3E3129" stroke-width="1"/><rect x="40" y="24" width="10" height="10" fill="#D3F1EA" stroke="#3E3129" stroke-width="1"/><rect x="50" y="14" width="10" height="10" fill="#D3F1EA" stroke="#3E3129" stroke-width="1"/><rect x="50" y="24" width="10" height="10" fill="#D3F1EA" stroke="#3E3129" stroke-width="1"/><rect x="60" y="14" width="10" height="10" fill="#D3F1EA" stroke="#3E3129" stroke-width="1"/><rect x="60" y="24" width="10" height="10" fill="#D3F1EA" stroke="#3E3129" stroke-width="1"/><rect x="70" y="14" width="10" height="10" fill="#D3F1EA" stroke="#3E3129" stroke-width="1"/><rect x="70" y="24" width="10" height="10" fill="#D3F1EA" stroke="#3E3129" stroke-width="1"/><rect x="80" y="14" width="10" height="10" fill="#D3F1EA" stroke="#3E3129" stroke-width="1"/><rect x="80" y="24" width="10" height="10" fill="#D3F1EA" stroke="#3E3129" stroke-width="1"/><rect x="90" y="14" width="10" height="10" fill="#D3F1EA" stroke="#3E3129" stroke-width="1"/><rect x="90" y="24" width="10" height="10" fill="#D3F1EA" stroke="#3E3129" stroke-width="1"/><rect x="100" y="14" width="10" height="10" fill="#D3F1EA" stroke="#3E3129" stroke-width="1"/><rect x="100" y="24" width="10" height="10" fill="#D3F1EA" stroke="#3E3129" stroke-width="1"/><rect x="110" y="14" width="10" height="10" fill="#D3F1EA" stroke="#3E3129" stroke-width="1"/><rect x="110" y="24" width="10" height="10" fill="#D3F1EA" stroke="#3E3129" stroke-width="1"/><rect x="120" y="14" width="10" height="10" fill="#D3F1EA" stroke="#3E3129" stroke-width="1"/><rect x="120" y="24" width="10" height="10" fill="#D3F1EA" stroke="#3E3129" stroke-width="1"/><rect x="130" y="14" width="10" height="10" fill="#D3F1EA" stroke="#3E3129" stroke-width="1"/><rect x="130" y="24" width="10" height="10" fill="#D3F1EA" stroke="#3E3129" stroke-width="1"/><text x="160" y="29" font-size="14" font-weight="800" fill="#3E3129" text-anchor="start" paint-order="stroke" stroke="#fff" stroke-width="4" stroke-linejoin="round">2 × 12 = 24</text></g><g data-hl="r1"><rect x="20" y="52" width="10" height="10" fill="#FFDCD0" stroke="#3E3129" stroke-width="1"/><rect x="20" y="62" width="10" height="10" fill="#FFDCD0" stroke="#3E3129" stroke-width="1"/><rect x="20" y="72" width="10" height="10" fill="#FFDCD0" stroke="#3E3129" stroke-width="1"/><rect x="30" y="52" width="10" height="10" fill="#FFDCD0" stroke="#3E3129" stroke-width="1"/><rect x="30" y="62" width="10" height="10" fill="#FFDCD0" stroke="#3E3129" stroke-width="1"/><rect x="30" y="72" width="10" height="10" fill="#FFDCD0" stroke="#3E3129" stroke-width="1"/><rect x="40" y="52" width="10" height="10" fill="#FFDCD0" stroke="#3E3129" stroke-width="1"/><rect x="40" y="62" width="10" height="10" fill="#FFDCD0" stroke="#3E3129" stroke-width="1"/><rect x="40" y="72" width="10" height="10" fill="#FFDCD0" stroke="#3E3129" stroke-width="1"/><rect x="50" y="52" width="10" height="10" fill="#FFDCD0" stroke="#3E3129" stroke-width="1"/><rect x="50" y="62" width="10" height="10" fill="#FFDCD0" stroke="#3E3129" stroke-width="1"/><rect x="50" y="72" width="10" height="10" fill="#FFDCD0" stroke="#3E3129" stroke-width="1"/><rect x="60" y="52" width="10" height="10" fill="#FFDCD0" stroke="#3E3129" stroke-width="1"/><rect x="60" y="62" width="10" height="10" fill="#FFDCD0" stroke="#3E3129" stroke-width="1"/><rect x="60" y="72" width="10" height="10" fill="#FFDCD0" stroke="#3E3129" stroke-width="1"/><rect x="70" y="52" width="10" height="10" fill="#FFDCD0" stroke="#3E3129" stroke-width="1"/><rect x="70" y="62" width="10" height="10" fill="#FFDCD0" stroke="#3E3129" stroke-width="1"/><rect x="70" y="72" width="10" height="10" fill="#FFDCD0" stroke="#3E3129" stroke-width="1"/><rect x="80" y="52" width="10" height="10" fill="#FFDCD0" stroke="#3E3129" stroke-width="1"/><rect x="80" y="62" width="10" height="10" fill="#FFDCD0" stroke="#3E3129" stroke-width="1"/><rect x="80" y="72" width="10" height="10" fill="#FFDCD0" stroke="#3E3129" stroke-width="1"/><rect x="90" y="52" width="10" height="10" fill="#FFDCD0" stroke="#3E3129" stroke-width="1"/><rect x="90" y="62" width="10" height="10" fill="#FFDCD0" stroke="#3E3129" stroke-width="1"/><rect x="90" y="72" width="10" height="10" fill="#FFDCD0" stroke="#3E3129" stroke-width="1"/><text x="160" y="72" font-size="14" font-weight="800" fill="#3E3129" text-anchor="start" paint-order="stroke" stroke="#fff" stroke-width="4" stroke-linejoin="round">3 × 8 = 24</text></g><g data-hl="r2"><rect x="20" y="100" width="10" height="10" fill="#FFEEBF" stroke="#3E3129" stroke-width="1"/><rect x="20" y="110" width="10" height="10" fill="#FFEEBF" stroke="#3E3129" stroke-width="1"/><rect x="20" y="120" width="10" height="10" fill="#FFEEBF" stroke="#3E3129" stroke-width="1"/><rect x="20" y="130" width="10" height="10" fill="#FFEEBF" stroke="#3E3129" stroke-width="1"/><rect x="30" y="100" width="10" height="10" fill="#FFEEBF" stroke="#3E3129" stroke-width="1"/><rect x="30" y="110" width="10" height="10" fill="#FFEEBF" stroke="#3E3129" stroke-width="1"/><rect x="30" y="120" width="10" height="10" fill="#FFEEBF" stroke="#3E3129" stroke-width="1"/><rect x="30" y="130" width="10" height="10" fill="#FFEEBF" stroke="#3E3129" stroke-width="1"/><rect x="40" y="100" width="10" height="10" fill="#FFEEBF" stroke="#3E3129" stroke-width="1"/><rect x="40" y="110" width="10" height="10" fill="#FFEEBF" stroke="#3E3129" stroke-width="1"/><rect x="40" y="120" width="10" height="10" fill="#FFEEBF" stroke="#3E3129" stroke-width="1"/><rect x="40" y="130" width="10" height="10" fill="#FFEEBF" stroke="#3E3129" stroke-width="1"/><rect x="50" y="100" width="10" height="10" fill="#FFEEBF" stroke="#3E3129" stroke-width="1"/><rect x="50" y="110" width="10" height="10" fill="#FFEEBF" stroke="#3E3129" stroke-width="1"/><rect x="50" y="120" width="10" height="10" fill="#FFEEBF" stroke="#3E3129" stroke-width="1"/><rect x="50" y="130" width="10" height="10" fill="#FFEEBF" stroke="#3E3129" stroke-width="1"/><rect x="60" y="100" width="10" height="10" fill="#FFEEBF" stroke="#3E3129" stroke-width="1"/><rect x="60" y="110" width="10" height="10" fill="#FFEEBF" stroke="#3E3129" stroke-width="1"/><rect x="60" y="120" width="10" height="10" fill="#FFEEBF" stroke="#3E3129" stroke-width="1"/><rect x="60" y="130" width="10" height="10" fill="#FFEEBF" stroke="#3E3129" stroke-width="1"/><rect x="70" y="100" width="10" height="10" fill="#FFEEBF" stroke="#3E3129" stroke-width="1"/><rect x="70" y="110" width="10" height="10" fill="#FFEEBF" stroke="#3E3129" stroke-width="1"/><rect x="70" y="120" width="10" height="10" fill="#FFEEBF" stroke="#3E3129" stroke-width="1"/><rect x="70" y="130" width="10" height="10" fill="#FFEEBF" stroke="#3E3129" stroke-width="1"/><text x="160" y="125" font-size="14" font-weight="800" fill="#3E3129" text-anchor="start" paint-order="stroke" stroke="#fff" stroke-width="4" stroke-linejoin="round">4 × 6 = 24</text></g></svg>
