<svg xmlns="http://www.w3.org/2000/svg" viewBox="0 0 320 250" font-family="Nunito, sans-serif"><g data-hl="a"><g><circle cx="40" cy="25" r="6" fill="#3D7A47" stroke="#3D7A47" stroke-width="1"/><circle cx="58" cy="25" r="6" fill="#3D7A47" stroke="#3D7A47" stroke-width="1"/><circle cx="76" cy="25" r="6" fill="#3D7A47" stroke="#3D7A47" stroke-width="1"/><circle cx="94" cy="25" r="6" fill="#3D7A47" stroke="#3D7A47" stroke-width="1"/><circle cx="112" cy="25" r="6" fill="#3D7A47" stroke="#3D7A47" stroke-width="1"/><circle cx="130" cy="25" r="6" fill="#3D7A47" stroke="#3D7A47" stroke-width="1"/><circle cx="148" cy="25" r="6" fill="#3D7A47" stroke="#3D7A47" stroke-width="1"/><circle cx="40" cy="43" r="6" fill="#3D7A47" stroke="#3D7A47" stroke-width="1"/><circle cx="58" cy="43" r="6" fill="#3D7A47" stroke="#3D7A47" stroke-width="1"/><circle cx="76" cy="43" r="6" fill="#3D7A47" stroke="#3D7A47" stroke-width="1"/><circle cx="94" cy="43" r="6" fill="#3D7A47" stroke="#3D7A47" stroke-width="1"/><circle cx="112" cy="43" r="6" fill="#3D7A47" stroke="#3D7A47" stroke-width="1"/><circle cx="130" cy="43" r="6" fill="#3D7A47" stroke="#3D7A47" stroke-width="1"/><circle cx="148" cy="43" r="6" fill="#3D7A47" stroke="#3D7A47" stroke-width="1"/><circle cx="40" cy="61" r="6" fill="#3D7A47" stroke="#3D7A47" stroke-width="1"/><circle cx="58" cy="61" r="6" fill="#3D7A47" stroke="#3D7A47" stroke-width="1"/><circle cx="76" cy="61" r="6" fill="#3D7A47" stroke="#3D7A47" stroke-width="1"/><circle cx="94" cy="61" r="6" fill="#3D7A47" stroke="#3D7A47" stroke-width="1"/><circle cx="112" cy="61" r="6" fill="#3D7A47" stroke="#3D7A47" stroke-width="1"/><circle cx="130" cy="61" r="6" fill="#3D7A47" stroke="#3D7A47" stroke-width="1"/><circle cx="148" cy="61" r="6" fill="#3D7A47" stroke="#3D7A47" stroke-width="1"/><circle cx="40" cy="79" r="6" fill="#3D7A47" stroke="#3D7A47" stroke-width="1"/><circle cx="58" cy="79" r="6" fill="#3D7A47" stroke="#3D7A47" stroke-width="1"/><circle cx="76" cy="79" r="6" fill="#3D7A47" stroke="#3D7A47" stroke-width="1"/><circle cx="94" cy="79" r="6" fill="#3D7A47" stroke="#3D7A47" stroke-width="1"/><circle cx="112" cy="79" r="6" fill="#3D7A47" stroke="#3D7A47" stroke-width="1"/><circle cx="130" cy="79" r="6" fill="#3D7A47" stroke="#3D7A47" stroke-width="1"/><circle cx="148" cy="79" r="6" fill="#3D7A47" stroke="#3D7A47" stroke-width="1"/><circle cx="40" cy="97" r="6" fill="#3D7A47" stroke="#3D7A47" stroke-width="1"/><circle cx="58" cy="97" r="6" fill="#3D7A47" stroke="#3D7A47" stroke-width="1"/><circle cx="76" cy="97" r="6" fill="#3D7A47" stroke="#3D7A47" stroke-width="1"/><circle cx="94" cy="97" r="6" fill="#3D7A47" stroke="#3D7A47" stroke-width="1"/><circle cx="112" cy="97" r="6" fill="#3D7A47" stroke="#3D7A47" stroke-width="1"/><circle cx="130" cy="97" r="6" fill="#3D7A47" stroke="#3D7A47" stroke-width="1"/><circle cx="148" cy="97" r="6" fill="#3D7A47" stroke="#3D7A47" stroke-width="1"/><circle cx="40" cy="115" r="6" fill="#3D7A47" stroke="#3D7A47" stroke-width="1"/><circle cx="58" cy="115" r="6" fill="#3D7A47" stroke="#3D7A47" stroke-width="1"/><circle cx="76" cy="115" r="6" fill="#3D7A47" stroke="#3D7A47" stroke-width="1"/><circle cx="94" cy="115" r="6" fill="#3D7A47" stroke="#3D7A47" stroke-width="1"/><circle cx="112" cy="115" r="6" fill="#3D7A47" stroke="#3D7A47" stroke-width="1"/><circle cx="130" cy="115" r="6" fill="#3D7A47" stroke="#3D7A47" stroke-width="1"/><circle cx="148" cy="115" r="6" fill="#3D7A47" stroke="#3D7A47" stroke-width="1"/></g></g><rect x="15" y="140" width="290" height="14" fill="#D9E8F7" stroke="#2F5F8F" stroke-width="1"/><text x="160" y="151" font-size="11" font-weight="800" fill="#3E3129" text-anchor="middle" paint-order="stroke" stroke="#fff" stroke-width="4" stroke-linejoin="round">river</text><g data-hl="b"><g><circle cx="40" cy="170" r="6" fill="#2A7A6B" stroke="#2A7A6B" stroke-width="1"/><circle cx="58" cy="170" r="6" fill="#2A7A6B" stroke="#2A7A6B" stroke-width="1"/><circle cx="76" cy="170" r="6" fill="#2A7A6B" stroke="#2A7A6B" stroke-width="1"/><circle cx="94" cy="170" r="6" fill="#2A7A6B" stroke="#2A7A6B" stroke-width="1"/><circle cx="112" cy="170" r="6" fill="#2A7A6B" stroke="#2A7A6B" stroke-width="1"/><circle cx="130" cy="170" r="6" fill="#2A7A6B" stroke="#2A7A6B" stroke-width="1"/><circle cx="148" cy="170" r="6" fill="#2A7A6B" stroke="#2A7A6B" stroke-width="1"/><circle cx="40" cy="188" r="6" fill="#2A7A6B" stroke="#2A7A6B" stroke-width="1"/><circle cx="58" cy="188" r="6" fill="#2A7A6B" stroke="#2A7A6B" stroke-width="1"/><circle cx="76" cy="188" r="6" fill="#2A7A6B" stroke="#2A7A6B" stroke-width="1"/><circle cx="94" cy="188" r="6" fill="#2A7A6B" stroke="#2A7A6B" stroke-width="1"/><circle cx="112" cy="188" r="6" fill="#2A7A6B" stroke="#2A7A6B" stroke-width="1"/><circle cx="130" cy="188" r="6" fill="#2A7A6B" stroke="#2A7A6B" stroke-width="1"/><circle cx="148" cy="188" r="6" fill="#2A7A6B" stroke="#2A7A6B" stroke-width="1"/><circle cx="40" cy="206" r="6" fill="#2A7A6B" stroke="#2A7A6B" stroke-width="1"/><circle cx="58" cy="206" r="6" fill="#2A7A6B" stroke="#2A7A6B" stroke-width="1"/><circle cx="76" cy="206" r="6" fill="#2A7A6B" stroke="#2A7A6B" stroke-width="1"/><circle cx="94" cy="206" r="6" fill="#2A7A6B" stroke="#2A7A6B" stroke-width="1"/><circle cx="112" cy="206" r="6" fill="#2A7A6B" stroke="#2A7A6B" stroke-width="1"/><circle cx="130" cy="206" r="6" fill="#2A7A6B" stroke="#2A7A6B" stroke-width="1"/><circle cx="148" cy="206" r="6" fill="#2A7A6B" stroke="#2A7A6B" stroke-width="1"/><circle cx="40" cy="224" r="6" fill="#2A7A6B" stroke="#2A7A6B" stroke-width="1"/><circle cx="58" cy="224" r="6" fill="#2A7A6B" stroke="#2A7A6B" stroke-width="1"/><circle cx="76" cy="224" r="6" fill="#2A7A6B" stroke="#2A7A6B" stroke-width="1"/><circle cx="94" cy="224" r="6" fill="#2A7A6B" stroke="#2A7A6B" stroke-width="1"/><circle cx="112" cy="224" r="6" fill="#2A7A6B" stroke="#2A7A6B" stroke-width="1"/><circle cx="130" cy="224" r="6" fill="#2A7A6B" stroke="#2A7A6B" stroke-width="1"/><circle cx="148" cy="224" r="6" fill="#2A7A6B" stroke="#2A7A6B" stroke-width="1"/></g></g><text x="240" y="70" font-size="13" font-weight="800" fill="#3E3129" text-anchor="start" paint-order="stroke" stroke="#fff" stroke-width="4" stroke-linejoin="round">6 rows of 7</text><text x="240" y="200" font-size="13" font-weight="800" fill="#3E3129" text-anchor="start" paint-order="stroke" stroke="#fff" stroke-width="4" stroke-linejoin="round">4 rows of 7</text></svg>
