<svg xmlns="http://www.w3.org/2000/svg" viewBox="0 0 320 240" font-family="Nunito,sans-serif" font-weight="900">
<g data-hl="sci"><circle cx="55" cy="50" r="32" fill="#FFFBF2" stroke="#C9B49C" stroke-width="2.5"/><path d="M48 30h14M51 30v14l-10 18q-2 4 3 4h22q5 0 3-4l-10-18V30" fill="#EAE0F7" stroke="#6A4C9C" stroke-width="2"/><text x="55" y="98" font-size="11" fill="#6A5B50" text-anchor="middle" >scientific research</text></g><g data-hl="nav"><circle cx="160" cy="50" r="32" fill="#FFFBF2" stroke="#C9B49C" stroke-width="2.5"/><path d="M136 56h48l-8 12h-32z" fill="#FFC9BA" stroke="#D9765A" stroke-width="2"/><path d="M160 56V30l14 20z" fill="#fff" stroke="#6A5B50" stroke-width="1.5"/><text x="160" y="98" font-size="11" fill="#6A5B50" text-anchor="middle" >navigation</text></g><g data-hl="wea"><circle cx="265" cy="50" r="32" fill="#FFFBF2" stroke="#C9B49C" stroke-width="2.5"/><path d="M248 58a10 10 0 0 1 8-16a12 12 0 0 1 22 2a8 8 0 0 1 2 14z" fill="#fff" stroke="#9C8A76" stroke-width="2"/><circle cx="276" cy="36" r="7" fill="#FFE08A"/><text x="265" y="98" font-size="11" fill="#6A5B50" text-anchor="middle" >weather</text></g><g data-hl="com"><circle cx="55" cy="160" r="32" fill="#FFFBF2" stroke="#C9B49C" stroke-width="2.5"/><rect x="38" y="146" width="34" height="24" rx="3" fill="#D9E8F7" stroke="#5F90C4" stroke-width="2"/><path d="M47 146l8-8 8 8" fill="none" stroke="#5F90C4" stroke-width="2"/><text x="55" y="208" font-size="11" fill="#6A5B50" text-anchor="middle" >communications</text></g><g data-hl="obs"><circle cx="160" cy="160" r="32" fill="#FFFBF2" stroke="#C9B49C" stroke-width="2.5"/><circle cx="156" cy="156" r="14" fill="#DDEFD8" stroke="#2F6B3A" stroke-width="3"/><path d="M166 166l10 10" stroke="#2F6B3A" stroke-width="5" stroke-linecap="round"/><text x="160" y="208" font-size="11" fill="#6A5B50" text-anchor="middle" >earth observation</text></g><g data-hl="mil"><circle cx="265" cy="160" r="32" fill="#FFFBF2" stroke="#C9B49C" stroke-width="2.5"/><path d="M250 170a16 16 0 0 1 30 0z" fill="#9C8A76"/><path d="M265 170l10-20" stroke="#A8412A" stroke-width="3"/><path d="M270 144q8 4 8 12M274 138q12 6 12 18" fill="none" stroke="#A8412A" stroke-width="2"/><text x="265" y="208" font-size="11" fill="#6A5B50" text-anchor="middle" >military</text></g>
</svg>
