<svg xmlns="http://www.w3.org/2000/svg" viewBox="0 0 320 240" font-family="Nunito,sans-serif" font-weight="900">
<rect x="4" y="8" width="150" height="224" rx="14" fill="#DDEFD8" data-hl="prod"/><rect x="166" y="8" width="150" height="224" rx="14" fill="#D9E8F7" data-hl="feat"/><g data-hl="prod"><path d="M44 60q10 14 10 22a10 10 0 0 1-20 0q0-8 10-22z" fill="#6FA8DC" stroke="#5F90C4" stroke-width="2"/><g transform="translate(112 90) scale(1)"><rect x="-3" y="-4" width="6" height="18" fill="#B8704F"/><circle cx="0" cy="-14" r="14" fill="#5CA75C" stroke="#2F6B3A" stroke-width="2"/></g><rect x="28" y="150" width="30" height="36" rx="4" fill="#6A5B50"/><rect x="28" y="146" width="30" height="8" rx="3" fill="#9C8A76"/><path d="M92 184l12-26h18l12 26z" fill="#9C8A76" stroke="#6A5B50" stroke-width="2"/><path d="M104 170l6-8 6 8" fill="#FFE08A"/></g><g data-hl="feat"><path d="M180 100q30-30 60 0" fill="#B7A48C" stroke="#9C8A76" stroke-width="2"/><path d="M176 100h70" stroke="#7FB069" stroke-width="5"/><path d="M258 72q16-10 30 0M258 84q16-10 30 0M262 96q12-8 22 0" stroke="#5F90C4" stroke-width="3" fill="none"/><circle cx="210" cy="166" r="16" fill="#FFE08A" stroke="#DDA42A" stroke-width="3"/><path d="M258 172a10 10 0 0 1 8-16a12 12 0 0 1 22 2a8 8 0 0 1 2 14z" fill="#fff" stroke="#9C8A76" stroke-width="2"/><path d="M266 178l-2 8M276 178l-2 8" stroke="#5F90C4" stroke-width="2"/></g>
</svg>
