<svg xmlns="http://www.w3.org/2000/svg" viewBox="0 0 320 240" font-family="Nunito,sans-serif" font-weight="900">
<rect x="0" y="0" width="320" height="240" fill="#FFFBF2"/><text x="160" y="26" font-size="14" fill="#D9765A" text-anchor="middle" >Nine ethnic groups, one Eritrea</text><rect x="14" y="40" width="92" height="54" rx="12" fill="#FFC9BA" stroke="#6A5B50" stroke-width="2.5"/><text x="60.0" y="71.33333333333333" font-size="13" fill="#6A5B50" text-anchor="middle" >Afar</text><rect x="114" y="40" width="92" height="54" rx="12" fill="#FFE08A" stroke="#6A5B50" stroke-width="2.5"/><text x="160.0" y="71.33333333333333" font-size="13" fill="#6A5B50" text-anchor="middle" >Bedaweit</text><rect x="214" y="40" width="92" height="54" rx="12" fill="#DDEFD8" stroke="#6A5B50" stroke-width="2.5"/><text x="260.0" y="71.33333333333333" font-size="13" fill="#6A5B50" text-anchor="middle" >Bilen</text><rect x="14" y="104" width="92" height="54" rx="12" fill="#D9E8F7" stroke="#6A5B50" stroke-width="2.5"/><text x="60.0" y="135.33333333333334" font-size="13" fill="#6A5B50" text-anchor="middle" >Kunama</text><rect x="114" y="104" width="92" height="54" rx="12" fill="#EAE0F7" stroke="#6A5B50" stroke-width="2.5"/><text x="160.0" y="135.33333333333334" font-size="13" fill="#6A5B50" text-anchor="middle" >Nara</text><rect x="214" y="104" width="92" height="54" rx="12" fill="#FFC9BA" stroke="#6A5B50" stroke-width="2.5"/><text x="260.0" y="135.33333333333334" font-size="13" fill="#6A5B50" text-anchor="middle" >Rashaida</text><rect x="14" y="168" width="92" height="54" rx="12" fill="#FFE08A" stroke="#6A5B50" stroke-width="2.5"/><text x="60.0" y="199.33333333333334" font-size="13" fill="#6A5B50" text-anchor="middle" >Saho</text><rect x="114" y="168" width="92" height="54" rx="12" fill="#DDEFD8" stroke="#6A5B50" stroke-width="2.5"/><text x="160.0" y="199.33333333333334" font-size="13" fill="#6A5B50" text-anchor="middle" >Tigre</text><rect x="214" y="168" width="92" height="54" rx="12" fill="#D9E8F7" stroke="#6A5B50" stroke-width="2.5"/><text x="260.0" y="199.33333333333334" font-size="13" fill="#6A5B50" text-anchor="middle" >Tigrigna</text>
</svg>
