<svg xmlns="http://www.w3.org/2000/svg" viewBox="0 0 320 240" font-family="Nunito,sans-serif" font-weight="900">
<rect width="320" height="240" fill="#FFF7E8"/><rect x="0" y="180" width="320" height="60" fill="#E7D9C0"/><rect x="30" y="40" width="26" height="18" fill="#fff" stroke="#6A5B50" stroke-width="2"/><circle cx="38" cy="49" r="2.5" fill="#3E3129"/><circle cx="48" cy="49" r="2.5" fill="#3E3129"/><g transform="translate(120 160)"><rect x="-24" y="0" width="48" height="26" fill="#9A9A9A" stroke="#5A5A5A" stroke-width="2"/><path d="M-12 0q4 -14 0 -22M0 0q5 -16 0 -26M12 0q4 -14 0 -22" stroke="#F4A340" stroke-width="4" fill="none"/><rect x="-16" y="-10" width="32" height="10" rx="4" fill="#5A5A5A"/></g><g transform="translate(60 205)"><ellipse cx="0" cy="0" rx="26" ry="12" fill="#C9A77A" stroke="#6A4A2A" stroke-width="2"/><circle cx="26" cy="-10" r="9" fill="#C9A77A" stroke="#6A4A2A" stroke-width="2"/><path d="M-26 0q-12 -4 -16 -14" stroke="#6A4A2A" stroke-width="3" fill="none"/><path d="M-14 10v12M14 10v12" stroke="#6A4A2A" stroke-width="3"/></g><g transform="translate(200 150)"><rect x="-36" y="0" width="72" height="8" fill="#8A5A3A"/><path d="M-32 8v30M32 8v30" stroke="#8A5A3A" stroke-width="4"/><rect x="-10" y="-16" width="10" height="16" fill="#5F90C4"/><rect x="-8" y="-20" width="6" height="4" fill="#3E3129"/><path d="M10 -2l14 -6M10 -8l14 6" stroke="#6A5B50" stroke-width="2"/></g><path d="M250 180V160H262V140H274V120H286V100H298V80H310V60H322V180Z" fill="#C9B89A" stroke="#6A5B50" stroke-width="2"/><g fill="#E0A21A"><circle cx="160" cy="206.6" r="2.9"/><rect x="157.3" y="209.8" width="5.4" height="7.2" rx="2"/></g>
</svg>
