<svg xmlns="http://www.w3.org/2000/svg" viewBox="0 0 320 300"><defs><marker id="l5eA" viewBox="0 0 10 10" refX="7" refY="5" markerWidth="5" markerHeight="5" orient="auto-start-reverse"><path d="M0 0L10 5L0 10z" fill="#6A5B50"/></marker></defs><path data-hl="work" d="M160.0 150.0L160.0 38.0" stroke="#6A5B50" stroke-width="3" stroke-dasharray="2 6" stroke-linecap="round"/><path data-hl="boil" d="M160.0 150.0L269.0 150.0" stroke="#6A5B50" stroke-width="3" stroke-dasharray="2 6" stroke-linecap="round"/><path data-hl="eat" d="M160.0 150.0L160.0 262.0" stroke="#6A5B50" stroke-width="3" stroke-dasharray="2 6" stroke-linecap="round"/><path data-hl="sen" d="M160.0 150.0L51.0 150.0" stroke="#6A5B50" stroke-width="3" stroke-dasharray="2 6" stroke-linecap="round"/><g data-hl="work"><rect x="115.0" y="6.0" width="90" height="64" rx="16" fill="#D6E0F5" stroke="#3E4F8F" stroke-width="2.5"/><g transform="translate(140.0 18.0) scale(1.000)"><path d="M3 18c4-3 7 3 11 0s7 3 11 0 7 3 11 0M3 27c4-3 7 3 11 0s7 3 11 0 7 3 11 0" fill="none" stroke="#6F8FD6" stroke-width="3" stroke-linecap="round" stroke-linejoin="round"/></g></g><g data-hl="boil"><rect x="224.0" y="118.0" width="90" height="64" rx="16" fill="#FBEBB5" stroke="#C9A227" stroke-width="2.5"/><g transform="translate(249.0 130.0) scale(1.000)"><path d="M20 37c-8 0-12-5-12-11 0-7 6-10 6-17 4 2 6 6 6 9 2-2 3-4 3-7 5 4 9 9 9 15 0 6-4 11-12 11z" fill="#F7A58C" stroke="#A8322A" stroke-width="2.2" stroke-linecap="round" stroke-linejoin="round"/></g></g><g data-hl="eat"><rect x="115.0" y="230.0" width="90" height="64" rx="16" fill="#F9C9C2" stroke="#A8322A" stroke-width="2.5"/><g transform="translate(140.0 242.0) scale(1.000)"><ellipse cx="20" cy="26" rx="16" ry="8" fill="#FFFFFF" stroke="#3E3129" stroke-width="2.2"/><ellipse cx="20" cy="24" rx="9" ry="4" fill="#F7A58C" stroke="#3E3129" stroke-width="1.6"/><path d="M4 8v10M8 8v10M4 13h4M6 13v20" fill="none" stroke="#3E3129" stroke-width="1.6" stroke-linecap="round" stroke-linejoin="round"/></g></g><g data-hl="sen"><rect x="6.0" y="118.0" width="90" height="64" rx="16" fill="#D5EDD2" stroke="#5CA75C" stroke-width="2.5"/><g transform="translate(31.0 130.0) scale(1.000)"><path d="M20 34C6 25 4 16 9 10c4-4 9-3 11 2 2-5 7-6 11-2 5 6 3 15-11 24z" fill="#EE6A58" stroke="#3E3129" stroke-width="2.2" stroke-linecap="round" stroke-linejoin="round"/></g></g><g data-hl="center"><rect x="112.0" y="111.0" width="96" height="78" rx="37" fill="#FBEBB5" stroke="#C9A227" stroke-width="2.5"/><g transform="translate(139.0 129.0) scale(1.050)"><path d="M12 14c0-9 16-9 16 0v8h-16z" fill="#9A6B45" stroke="#3E3129" stroke-width="1.6" stroke-linecap="round" stroke-linejoin="round"/><circle cx="20" cy="13" r="6.5" fill="#E0A27A" stroke="#3E3129" stroke-width="2.2"/><path d="M8 37c1-9 5-15 12-15s11 6 12 15z" fill="#F7A58C" stroke="#3E3129" stroke-width="2.2" stroke-linecap="round" stroke-linejoin="round"/></g></g></svg>