<svg xmlns="http://www.w3.org/2000/svg" viewBox="0 0 320 240" font-family="Nunito,sans-serif" font-weight="900">
<path d="M142 156v-24q0-6 5-6v-18q0-5 5-5t5 5v14v-18q0-5 5-5t5 5v18v-14q0-5 5-5t5 5v24q6-8 10-4q4 4-6 16l-8 12z" fill="#FFC9BA" stroke="#D9765A" stroke-width="3"/><path d="M50 40q20-20 40 0q-20 10-40 0z" fill="#fff" stroke="#9C8A76" stroke-width="2"/><rect x="230" y="30" width="40" height="26" rx="4" fill="#9C8A76"/><path d="M40 140l30 -6l-30 -6z" fill="#9C8A76" stroke="#6A5B50" stroke-width="1.5"/><path d="M270 150q-10-14 0-30q10 16 0 30z" fill="#FFE08A" stroke="#E4574A" stroke-width="2"/><path d="M150 200l10 -14l10 14l-10 14z" fill="#D9E8F7" stroke="#5F90C4" stroke-width="2"/>
</svg>
