<svg xmlns="http://www.w3.org/2000/svg" viewBox="0 0 320 250"><defs><marker id="c9cA" viewBox="0 0 10 10" refX="7" refY="5" markerWidth="5" markerHeight="5" orient="auto-start-reverse"><path d="M0 0L10 5L0 10z" fill="#6A5B50"/></marker></defs><rect x="0" y="236" width="320" height="12" rx="6" fill="#EDE3D3"/><g data-hl="irr"><rect x="12" y="200" width="96" height="36" rx="6" fill="#F9C9C2" stroke="#A8322A" stroke-width="2.5"/><g><path d="M54.4 169.6L53.6 200M65.6 169.6L66.4 200" fill="none" stroke="#3E3129" stroke-width="4.0" stroke-linecap="round" stroke-linejoin="round"/><path d="M48.8 144.0L44.0 168.0M71.2 144.0L76.0 168.0" fill="none" stroke="#A86E4A" stroke-width="4.800000000000001" stroke-linecap="round" stroke-linejoin="round"/><rect x="48.0" y="139.2" width="24.0" height="32.0" rx="7.2" fill="#B8B0A8" stroke="#3E3129" stroke-width="2"/><circle cx="60" cy="129.6" r="10.600000000000001" fill="#9A6B45" stroke="#3E3129" stroke-width="1.5"/><circle cx="60" cy="131.6" r="9.600000000000001" fill="#E0A27A" stroke="#A86E4A" stroke-width="2"/><path d="M52.352 124.44800000000001l7 3M67.648 124.44800000000001l-7 3" fill="none" stroke="#3E3129" stroke-width="2" stroke-linecap="round" stroke-linejoin="round"/><circle cx="56.352" cy="130.448" r="1.8" fill="#3E3129" stroke="0" stroke-width="2.2"/><circle cx="63.648" cy="130.448" r="1.8" fill="#3E3129" stroke="0" stroke-width="2.2"/><path d="M54 136.4q6 -5 12 0" fill="none" stroke="#3E3129" stroke-width="2" stroke-linecap="round" stroke-linejoin="round"/></g><g transform="translate(43.0 205.0) scale(0.850)"><path d="M20 35l12-13h-7V6h-10v16H8z" fill="#F4A99E" stroke="#A8322A" stroke-width="2.2" stroke-linecap="round" stroke-linejoin="round"/></g></g><g data-hl="good"><rect x="112" y="150" width="96" height="86" rx="6" fill="#F3E7D7" stroke="#B89C80" stroke-width="2.5"/><g><path d="M154.4 119.6L153.6 150M165.6 119.6L166.4 150" fill="none" stroke="#3E3129" stroke-width="4.0" stroke-linecap="round" stroke-linejoin="round"/><path d="M148.8 94.0L144.0 118.0M171.2 94.0L176.0 118.0" fill="none" stroke="#A86E4A" stroke-width="4.800000000000001" stroke-linecap="round" stroke-linejoin="round"/><rect x="148.0" y="89.19999999999999" width="24.0" height="32.0" rx="7.2" fill="#6F8FD6" stroke="#3E3129" stroke-width="2"/><circle cx="160" cy="79.6" r="10.600000000000001" fill="#9A6B45" stroke="#3E3129" stroke-width="1.5"/><circle cx="160" cy="81.6" r="9.600000000000001" fill="#E0A27A" stroke="#A86E4A" stroke-width="2"/><circle cx="156.352" cy="80.448" r="1.8" fill="#3E3129" stroke="0" stroke-width="2.2"/><circle cx="163.648" cy="80.448" r="1.8" fill="#3E3129" stroke="0" stroke-width="2.2"/><path d="M154 84.96q6 6 12 0" fill="none" stroke="#3E3129" stroke-width="2" stroke-linecap="round" stroke-linejoin="round"/></g><g transform="translate(143.0 180.0) scale(0.850)"><circle cx="20" cy="20" r="15" fill="#9ED39A" stroke="#5CA75C" stroke-width="2.2"/><path d="M12 20l6 6 11-12" fill="none" stroke="#fff" stroke-width="4" stroke-linecap="round" stroke-linejoin="round"/></g></g><g data-hl="act"><rect x="212" y="100" width="96" height="136" rx="6" fill="#D5EDD2" stroke="#5CA75C" stroke-width="2.5"/><g><path d="M254.4 69.6L253.6 100M265.6 69.6L266.4 100" fill="none" stroke="#3E3129" stroke-width="4.0" stroke-linecap="round" stroke-linejoin="round"/><path d="M248.8 44.0L240.8 23.19999999999999M271.2 44.0L279.2 23.19999999999999" fill="none" stroke="#A86E4A" stroke-width="4.800000000000001" stroke-linecap="round" stroke-linejoin="round"/><rect x="248.0" y="39.199999999999996" width="24.0" height="32.0" rx="7.2" fill="#6F8FD6" stroke="#3E3129" stroke-width="2"/><circle cx="260" cy="29.6" r="10.600000000000001" fill="#9A6B45" stroke="#3E3129" stroke-width="1.5"/><circle cx="260" cy="31.6" r="9.600000000000001" fill="#E0A27A" stroke="#A86E4A" stroke-width="2"/><circle cx="256.352" cy="30.448" r="1.8" fill="#3E3129" stroke="0" stroke-width="2.2"/><circle cx="263.648" cy="30.448" r="1.8" fill="#3E3129" stroke="0" stroke-width="2.2"/><path d="M254 34.96q6 6 12 0" fill="none" stroke="#3E3129" stroke-width="2" stroke-linecap="round" stroke-linejoin="round"/></g><g transform="translate(243.0 155.0) scale(0.850)"><path d="M8 32C6 16 16 6 34 6c0 18-10 28-26 26z" fill="#9ED39A" stroke="#5CA75C" stroke-width="2.2" stroke-linecap="round" stroke-linejoin="round"/><path d="M8 32L26 14" fill="none" stroke="#5CA75C" stroke-width="2" stroke-linecap="round" stroke-linejoin="round"/></g></g></svg>